<?xml version="1.0" standalone="no"?>
<!DOCTYPE svg PUBLIC "-//W3C//DTD SVG 20010904//EN"
 "http://www.w3.org/TR/2001/REC-SVG-20010904/DTD/svg10.dtd">
<svg version="1.0" xmlns="http://www.w3.org/2000/svg"
 width="300.000000pt" height="300.000000pt" viewBox="0 0 300.000000 300.000000"
 preserveAspectRatio="xMidYMid meet">

<g transform="translate(0.000000,300.000000) scale(0.100000,-0.100000)"
fill="#000000" stroke="none">
<path d="M1796 1964 c-24 -23 -19 -133 15 -376 10 -71 13 -78 33 -78 22 0 24
8 44 178 26 210 27 240 6 270 -18 26 -74 30 -98 6z"/>
<path d="M882 1578 l3 -393 80 0 c64 0 80 3 80 15 0 10 -10 15 -30 16 -16 0
-36 1 -42 2 -10 2 -13 81 -13 361 l0 360 42 3 c23 2 43 9 46 16 3 9 -18 12
-82 12 l-86 0 2 -392z"/>
<path d="M2040 1955 c0 -11 12 -15 45 -15 l45 0 -2 -362 -3 -363 -43 0 c-33 0
-42 -4 -42 -17 0 -16 10 -18 80 -18 l80 0 0 395 0 395 -80 0 c-64 0 -80 -3
-80 -15z"/>
<path d="M1182 1778 c-50 -8 -62 -13 -60 -26 2 -9 14 -19 28 -22 l25 -6 3
-282 2 -283 -30 -10 c-16 -6 -30 -17 -30 -25 0 -12 22 -14 127 -12 131 3 170
17 96 35 l-38 9 -3 81 -3 81 42 -9 c83 -19 183 12 232 71 70 83 75 261 9 349
-48 65 -150 81 -238 36 -27 -14 -50 -25 -51 -25 -2 0 -3 11 -3 25 0 28 -4 29
-108 13z m253 -60 c44 -20 68 -81 69 -173 0 -139 -37 -200 -123 -200 -80 0
-81 3 -81 192 l0 164 33 14 c40 18 68 18 102 3z"/>
<path d="M1820 1453 c-33 -12 -50 -37 -50 -73 0 -39 18 -62 56 -74 85 -26 125
114 42 143 -17 6 -31 11 -32 10 -1 0 -8 -3 -16 -6z"/>
</g>
</svg>
